# xmcd
#
# Track frame offsets: 
#        150
#        27048
#        50330
#        82328
#        94752
#        106703
#        128058
#        157907
#        178614
#
# Disc length: 2866 seconds
#
# Revision: 15
# Processed by: cddbd v1.5.2PL0 Copyright (c) Steve Scherf et al.
# Submitted via: ExactAudioCopyFreeDBPlugin 1.0
#
DISCID=640b3009
DTITLE=M.M. Kreem (AzeemUddin) - Sur (The Musical) - (Universal-CDF-59
DTITLE=4) - First Released
DYEAR=2002
DGENRE=Soundtrack
TTITLE0=Lucky Ali and Sunidhi Chauhan - Aa Bhi Ja Aa Bhi Ja
TTITLE1=Sunidhi Chauhan - Dil Mein Jaagi Dhadkan Aise
TTITLE2=Lucky Ali - Jaane Kya Dhoondta Hai
TTITLE3=Marijke Desouza - Ave Maria (Prayer)
TTITLE4=Instrumental - Sur Theme
TTITLE5=Lucky Ali - Aao Tumhen Ek Nayi Baat Bataon
TTITLE6=Lucky Ali and Sunidhi Chauhan - Tu Dil Ki Khushi
TTITLE7=Lucky Ali - Khoya Hai Tune Jo Ae Dil
TTITLE8=Mahalxmi Iyer - Kabhi Sham Dhale
EXTD=sur \n\n
EXTT0=
EXTT1=
EXTT2=
EXTT3=
EXTT4=
EXTT5=
EXTT6=
EXTT7=
EXTT8=
PLAYORDER=
